<svg width="122" height="31" viewBox="0 0 122 31" fill="none" xmlns="http://www.w3.org/2000/svg">
<path fill-rule="evenodd" clip-rule="evenodd" d="M1.70315 7.79538H12.9955C14.1997 7.79538 15.825 8.51553 17.1295 9.90946C18.4131 11.2809 19.3253 13.2445 19.1845 15.6392C18.9769 19.1672 16.6433 21.3751 14.5949 22.5851C13.5108 23.2255 12.1934 23.4191 10.7873 23.4191H6.80793C6.38076 23.4191 6.03447 23.7654 6.03447 24.1925C6.03447 24.6197 6.38076 24.966 6.80793 24.966H10.7873C12.3045 24.966 13.9486 24.7635 15.3816 23.917C17.6532 22.5752 20.4785 19.9833 20.7287 15.73C20.8972 12.8652 19.7985 10.4974 18.259 8.85244C16.7404 7.22991 14.7305 6.24847 12.9955 6.24847H1.54846C0.779564 6.24847 0.15625 6.87179 0.15625 7.64069V27.1316C0.15625 27.5588 0.502536 27.9051 0.929701 27.9051C1.35687 27.9051 1.70315 27.5588 1.70315 27.1316V7.79538Z" fill="#624BFF"/>
<path fill-rule="evenodd" clip-rule="evenodd" d="M0 3.77345C0 3.34629 0.346286 3 0.773451 3H12.2205L12.2321 3.00009C14.0915 3.02784 16.8771 3.64513 19.2802 5.41274C21.7146 7.20334 23.7148 10.1468 23.9757 14.7123C24.2187 18.964 22.6115 22.0386 20.3953 24.154C18.2025 26.2471 15.4358 27.3846 13.3209 27.8656C12.6243 28.024 11.9285 28.0598 11.2727 28.0598H3.86725C3.44009 28.0598 3.0938 27.7135 3.0938 27.2864V9.96106C3.0938 9.53389 3.44009 9.18761 3.86725 9.18761C4.29442 9.18761 4.6407 9.53389 4.6407 9.96106V26.5129H11.2727C11.879 26.5129 12.4438 26.4787 12.9779 26.3572C14.898 25.9205 17.3873 24.8868 19.3272 23.035C21.2439 21.2055 22.6462 18.5615 22.4313 14.8006C22.1972 10.7034 20.4333 8.1812 18.3636 6.65885C16.2652 5.11533 13.81 4.5719 12.2146 4.5469H0.773451C0.346286 4.5469 0 4.20062 0 3.77345Z" fill="#624BFF"/>
<path fill-rule="evenodd" clip-rule="evenodd" d="M6.1875 10.4251C6.1875 9.82709 6.6723 9.34229 7.27033 9.34229H11.803L11.8494 9.34791C12.824 9.46603 14.1377 9.90254 15.2227 10.8473C16.3326 11.8137 17.1705 13.287 17.1705 15.3752C17.1705 18.982 14.5067 20.7665 12.8138 21.4237C12.1758 21.6714 11.5168 21.7175 10.9413 21.7175H7.27033C6.6723 21.7175 6.1875 21.2327 6.1875 20.6347V10.4251ZM7.7344 10.8892V20.1706H10.9413C11.4493 20.1706 11.8819 20.1261 12.254 19.9817C13.6788 19.4286 15.6236 18.0532 15.6236 15.3752C15.6236 13.7508 14.992 12.6975 14.2069 12.0139C13.4132 11.3228 12.4307 10.9854 11.7075 10.8892H7.7344Z" fill="#624BFF"/>
<path d="M39.3466 25H32.6435V6.09091H39.402C41.304 6.09091 42.9413 6.46946 44.3139 7.22656C45.6866 7.97751 46.7422 9.05776 47.4808 10.4673C48.2256 11.8769 48.598 13.5634 48.598 15.527C48.598 17.4967 48.2256 19.1894 47.4808 20.6051C46.7422 22.0208 45.6804 23.1072 44.2955 23.8643C42.9167 24.6214 41.267 25 39.3466 25ZM36.6413 21.5746H39.1804C40.3622 21.5746 41.3563 21.3653 42.1626 20.9467C42.9751 20.522 43.5845 19.8665 43.9908 18.9801C44.4032 18.0876 44.6094 16.9366 44.6094 15.527C44.6094 14.1297 44.4032 12.9879 43.9908 12.1016C43.5845 11.2152 42.9782 10.5627 42.1719 10.1442C41.3655 9.72562 40.3714 9.51634 39.1896 9.51634H36.6413V21.5746ZM54.4897 25.2678C53.5848 25.2678 52.7785 25.1108 52.0706 24.7969C51.3628 24.4768 50.8026 24.0059 50.3902 23.3842C49.984 22.7564 49.7808 21.9747 49.7808 21.0391C49.7808 20.2512 49.9255 19.5895 50.2148 19.054C50.5041 18.5185 50.898 18.0876 51.3966 17.7614C51.8952 17.4351 52.4615 17.1889 53.0955 17.0227C53.7356 16.8565 54.4066 16.7396 55.1083 16.6719C55.9331 16.5857 56.5978 16.5057 57.1026 16.4318C57.6073 16.3518 57.9736 16.2348 58.2013 16.081C58.429 15.9271 58.5429 15.6993 58.5429 15.3977V15.3423C58.5429 14.7576 58.3583 14.3052 57.9889 13.9851C57.6258 13.665 57.1087 13.505 56.4378 13.505C55.7299 13.505 55.1667 13.6619 54.7482 13.9759C54.3296 14.2836 54.0526 14.6714 53.9172 15.1392L50.2794 14.8438C50.4641 13.982 50.8272 13.2372 51.3689 12.6094C51.9106 11.9754 52.6092 11.4891 53.4648 11.1506C54.3265 10.8059 55.3237 10.6335 56.4563 10.6335C57.2441 10.6335 57.9982 10.7259 58.7183 10.9105C59.4447 11.0952 60.0879 11.3814 60.648 11.7692C61.2143 12.157 61.6606 12.6555 61.9868 13.2649C62.313 13.8681 62.4762 14.5914 62.4762 15.4347V25H58.746V23.0334H58.6352C58.4075 23.4766 58.1028 23.8674 57.7212 24.206C57.3396 24.5384 56.881 24.8 56.3455 24.9908C55.81 25.1754 55.1914 25.2678 54.4897 25.2678ZM55.6161 22.5533C56.1947 22.5533 56.7056 22.4394 57.1487 22.2116C57.5919 21.9777 57.9397 21.6638 58.1921 21.2699C58.4444 20.8759 58.5706 20.4297 58.5706 19.9311V18.4261C58.4475 18.5062 58.2782 18.58 58.0628 18.6477C57.8535 18.7093 57.6165 18.7678 57.3519 18.8232C57.0872 18.8724 56.8225 18.9186 56.5578 18.9616C56.2932 18.9986 56.0531 19.0324 55.8377 19.0632C55.376 19.1309 54.9728 19.2386 54.6281 19.3864C54.2834 19.5341 54.0157 19.7341 53.8249 19.9865C53.6341 20.2327 53.5387 20.5405 53.5387 20.9098C53.5387 21.4453 53.7325 21.8546 54.1203 22.1378C54.5143 22.4148 55.0129 22.5533 55.6161 22.5533ZM76.2874 14.8622L72.6865 15.0838C72.625 14.776 72.4926 14.4991 72.2895 14.2528C72.0864 14.0005 71.8186 13.8004 71.4862 13.6527C71.16 13.4988 70.7691 13.4219 70.3136 13.4219C69.7043 13.4219 69.1903 13.5511 68.7717 13.8097C68.3532 14.062 68.1439 14.4006 68.1439 14.8253C68.1439 15.1638 68.2793 15.45 68.5501 15.6839C68.821 15.9179 69.2857 16.1056 69.9443 16.2472L72.5111 16.7642C73.8899 17.0473 74.9178 17.5028 75.5949 18.1307C76.272 18.7585 76.6105 19.5833 76.6105 20.6051C76.6105 21.5346 76.3366 22.3501 75.7888 23.0518C75.2471 23.7536 74.5023 24.3014 73.5544 24.6953C72.6126 25.0831 71.5262 25.277 70.2952 25.277C68.4178 25.277 66.9221 24.8861 65.808 24.1044C64.7 23.3165 64.0506 22.2455 63.8598 20.8913L67.7284 20.6882C67.8454 21.2607 68.1285 21.6977 68.5778 21.9993C69.0272 22.2947 69.6027 22.4425 70.3044 22.4425C70.9938 22.4425 71.5478 22.3101 71.9663 22.0455C72.3911 21.7746 72.6065 21.4268 72.6126 21.0021C72.6065 20.6451 72.4557 20.3527 72.1602 20.125C71.8648 19.8911 71.4093 19.7126 70.7938 19.5895L68.3378 19.1001C66.9528 18.8232 65.9218 18.343 65.2448 17.6598C64.5738 16.9766 64.2384 16.1056 64.2384 15.0469C64.2384 14.1359 64.4846 13.3511 64.977 12.6925C65.4756 12.0339 66.1742 11.526 67.0729 11.169C67.9777 10.812 69.0364 10.6335 70.249 10.6335C72.0402 10.6335 73.4498 11.0121 74.4777 11.7692C75.5118 12.5263 76.115 13.5573 76.2874 14.8622ZM81.9805 16.8011V25H78.0473V6.09091H81.8697V13.3203H82.0359C82.356 12.4832 82.873 11.8277 83.587 11.3537C84.301 10.8736 85.1966 10.6335 86.2738 10.6335C87.2587 10.6335 88.1173 10.849 88.8498 11.2798C89.5885 11.7045 90.1609 12.317 90.5671 13.1172C90.9796 13.9112 91.1827 14.8622 91.1765 15.9702V25H87.2433V16.6719C87.2494 15.7978 87.0278 15.1177 86.5785 14.6314C86.1353 14.1451 85.5136 13.902 84.7135 13.902C84.1779 13.902 83.704 14.0159 83.2916 14.2436C82.8853 14.4714 82.5653 14.8037 82.3314 15.2408C82.1036 15.6716 81.9867 16.1918 81.9805 16.8011ZM109.963 6.09091H113.961V18.3707C113.961 19.7495 113.632 20.956 112.973 21.9901C112.32 23.0241 111.406 23.8305 110.231 24.4091C109.055 24.9815 107.686 25.2678 106.122 25.2678C104.552 25.2678 103.18 24.9815 102.004 24.4091C100.829 23.8305 99.9145 23.0241 99.262 21.9901C98.6095 20.956 98.2833 19.7495 98.2833 18.3707V6.09091H102.281V18.0291C102.281 18.7493 102.438 19.3894 102.752 19.9496C103.072 20.5097 103.521 20.9498 104.1 21.2699C104.679 21.59 105.353 21.75 106.122 21.75C106.898 21.75 107.572 21.59 108.144 21.2699C108.723 20.9498 109.169 20.5097 109.483 19.9496C109.803 19.3894 109.963 18.7493 109.963 18.0291V6.09091ZM120.208 6.09091V25H116.21V6.09091H120.208Z" fill="#454F5B"/>
</svg>
